<svg xmlns="http://www.w3.org/2000/svg" fill="none" viewBox="0 0 24 24"><script xmlns="" id="__gaOptOutExtension"/><path fill="url(#a)" d="M2 6a2 2 0 0 1 2-2h14a4 4 0 0 1 4 4v10a2 2 0 0 1-2 2H6a4 4 0 0 1-4-4V6z"/><path fill="url(#b)" d="M3 6a1 1 0 0 1 1-1h14a3 3 0 0 1 3 3v10a1 1 0 0 1-1 1H6a3 3 0 0 1-3-3V6z"/><path fill="url(#c)" d="M3 6a1 1 0 0 1 1-1h14a3 3 0 0 1 3 3v10a1 1 0 0 1-1 1H6a3 3 0 0 1-3-3V6z"/><path fill="url(#d)" d="M12 7a5 5 0 0 1 0 10.001V15a3 3 0 0 0-3-3H7a5 5 0 0 1 5-5z"/><path fill="url(#e)" d="M12 7a5 5 0 0 1 0 10.001V15a3 3 0 0 0-3-3H7a5 5 0 0 1 5-5z"/><path fill="url(#f)" fill-opacity=".5" d="M12 7a5 5 0 0 1 0 10.001V15a3 3 0 0 0-3-3H7a5 5 0 0 1 5-5z"/><path fill="url(#g)" d="M12 7a5 5 0 0 1 4.321 7.515l.08-.177a1.66 1.66 0 0 0-1.512-2.342h-1.997a.895.895 0 0 1-.896-.895l.002-1.988A1.66 1.66 0 0 0 9.654 7.6l-.147.066A4.976 4.976 0 0 1 12 7z"/><path fill="url(#h)" d="M12 7a5 5 0 0 1 4.321 7.515l.08-.177a1.66 1.66 0 0 0-1.512-2.342h-1.997a.895.895 0 0 1-.896-.895l.002-1.988A1.66 1.66 0 0 0 9.654 7.6l-.147.066A4.976 4.976 0 0 1 12 7z"/><rect width="10" height="10" x="1" y="13" fill="url(#i)" rx="2"/><rect width="10" height="10" x="1" y="13" fill="url(#j)" fill-opacity=".3" rx="2"/><path fill="#fff" d="M5.161 19.046V21H3.813v-6h2.083c.746 0 1.313.163 1.703.49.392.326.589.81.589 1.451 0 .662-.22 1.178-.66 1.549-.437.37-1.024.556-1.762.556h-.605zm0-3.008v1.97h.564c.334 0 .591-.087.772-.263.18-.176.271-.428.271-.758 0-.304-.089-.538-.267-.702-.175-.165-.427-.247-.756-.247h-.584z"/><defs><linearGradient id="a" x1="8.458" x2="10.193" y1="4" y2="20.259" gradientUnits="userSpaceOnUse"><stop stop-color="#BBB"/><stop offset="1" stop-color="#888"/></linearGradient><linearGradient id="b" x1="8" x2="9.386" y1="5" y2="19.254" gradientUnits="userSpaceOnUse"><stop stop-color="#fff"/><stop offset="1" stop-color="#EBEBEB"/></linearGradient><radialGradient id="c" cx="0" cy="0" r="1" gradientTransform="matrix(9.5 11.0833 -14.25 4.15625 8.75 8.646)" gradientUnits="userSpaceOnUse"><stop offset=".177" stop-color="#fff"/><stop offset="1" stop-color="#EFEFEF"/></radialGradient><linearGradient id="d" x1="11.493" x2="5.366" y1="6.682" y2="12.543" gradientUnits="userSpaceOnUse"><stop offset=".058" stop-color="#FF7F48"/><stop offset="1" stop-color="#E5495B"/></linearGradient><radialGradient id="e" cx="0" cy="0" r="1" gradientTransform="rotate(135 4.938 7.846) scale(10.0397 16.8981)" gradientUnits="userSpaceOnUse"><stop offset=".152" stop-color="#AA1D2D"/><stop offset=".381" stop-color="#D12B18" stop-opacity=".44"/><stop offset=".602" stop-color="#FF3C00" stop-opacity="0"/></radialGradient><radialGradient id="f" cx="0" cy="0" r="1" gradientTransform="matrix(8.60542 -4.06468 7.36376 15.58999 5.255 16.065)" gradientUnits="userSpaceOnUse"><stop offset=".407" stop-color="#FF66FB"/><stop offset="1" stop-color="#EA3D01" stop-opacity="0"/></radialGradient><radialGradient id="g" cx="0" cy="0" r="1" gradientTransform="matrix(4.56583 -5.23083 4.87307 4.05917 11.448 12.685)" gradientUnits="userSpaceOnUse"><stop stop-color="#FD6EF9"/><stop offset=".637" stop-color="#F94"/><stop offset=".852" stop-color="#FCC479"/></radialGradient><radialGradient id="h" cx="0" cy="0" r="1" gradientTransform="matrix(-.51574 3.4971 -7.90606 -1.11268 10.994 7.66)" gradientUnits="userSpaceOnUse"><stop offset=".144" stop-color="#FF8D13"/><stop offset=".537" stop-color="#FF7F29" stop-opacity="0"/></radialGradient><radialGradient id="i" cx="0" cy="0" r="1" gradientTransform="rotate(45 -15.193 7.706) scale(14.1421)" gradientUnits="userSpaceOnUse"><stop stop-color="#F8193E"/><stop offset=".939" stop-color="#920616"/></radialGradient><radialGradient id="j" cx="0" cy="0" r="1" gradientTransform="matrix(0 7 -7.96875 0 5.999 19)" gradientUnits="userSpaceOnUse"><stop offset=".576" stop-color="#FFB055" stop-opacity="0"/><stop offset=".974" stop-color="#FFF2BE"/></radialGradient></defs></svg>