<svg xmlns="http://www.w3.org/2000/svg" fill="none" viewBox="0 0 24 24"><script xmlns="" id="__gaOptOutExtension"/><path fill="url(#a)" d="M2 6a2 2 0 0 1 2-2h14a4 4 0 0 1 4 4v10a2 2 0 0 1-2 2H6a4 4 0 0 1-4-4V6z"/><path fill="url(#b)" d="M3 6a1 1 0 0 1 1-1h14a3 3 0 0 1 3 3v10a1 1 0 0 1-1 1H6a3 3 0 0 1-3-3V6z"/><path fill="url(#c)" d="M3 6a1 1 0 0 1 1-1h14a3 3 0 0 1 3 3v10a1 1 0 0 1-1 1H6a3 3 0 0 1-3-3V6z"/><path fill="url(#d)" d="M11 6a3.75 3.75 0 0 1 .568 7.457A2.994 2.994 0 0 0 9 12H8a3.75 3.75 0 0 1 3-6z"/><path fill="url(#e)" fill-opacity=".2" d="M11 6a3.75 3.75 0 0 1 .568 7.457A2.994 2.994 0 0 0 9 12H8a3.75 3.75 0 0 1 3-6z"/><path fill="url(#f)" fill-opacity=".31" d="M11 6a3.75 3.75 0 0 1 .568 7.457A2.994 2.994 0 0 0 9 12H8a3.75 3.75 0 0 1 3-6z"/><path fill="url(#g)" fill-opacity=".7" d="M11 6a3.75 3.75 0 0 1 .568 7.457A2.994 2.994 0 0 0 9 12H8a3.75 3.75 0 0 1 3-6z"/><path fill="url(#h)" d="M14 9.75a3 3 0 1 1 0 6c-.77 0-1.47-.293-2.001-.77A2.988 2.988 0 0 0 11 12.77v-.019a3 3 0 0 1 3-3z"/><path fill="url(#i)" fill-opacity=".5" d="M14 9.75a3 3 0 1 1 0 6c-.77 0-1.47-.293-2.001-.77A2.988 2.988 0 0 0 11 12.77v-.019a3 3 0 0 1 3-3z"/><path fill="url(#j)" fill-opacity=".7" d="M14 9.75a3 3 0 1 1 0 6c-.77 0-1.47-.293-2.001-.77A2.988 2.988 0 0 0 11 12.77v-.019a3 3 0 0 1 3-3z"/><path fill="url(#k)" d="M11.469 12.938A2.531 2.531 0 0 1 12 17.941V15c0-.792-.31-1.51-.812-2.047.092-.01.186-.015.28-.015z"/><path fill="url(#l)" fill-opacity=".32" d="M11.469 12.938A2.531 2.531 0 0 1 12 17.941V15c0-.792-.31-1.51-.812-2.047.092-.01.186-.015.28-.015z"/><rect width="10" height="10" x="1" y="13" fill="url(#m)" rx="2"/><rect width="10" height="10" x="1" y="13" fill="url(#n)" fill-opacity=".6" rx="2"/><path fill="#fff" d="m3.744 19.761 1.135-.575c.128.251.295.436.501.555.209.119.437.178.685.178.275 0 .486-.054.63-.162.145-.11.217-.277.217-.498a.553.553 0 0 0-.208-.437c-.14-.122-.386-.213-.74-.275-.673-.12-1.163-.327-1.469-.624a1.49 1.49 0 0 1-.455-1.11c0-.55.2-.99.601-1.32.401-.328.93-.493 1.587-.493.442 0 .832.088 1.169.263a2 2 0 0 1 .801.753l-1.11.555a1.224 1.224 0 0 0-.397-.397 1.038 1.038 0 0 0-.534-.125c-.256 0-.451.054-.585.162a.52.52 0 0 0-.196.42c0 .149.063.28.188.393.128.111.384.201.768.271.646.12 1.127.335 1.445.648.32.31.48.703.48 1.178 0 .578-.191 1.036-.572 1.373-.382.337-.926.506-1.633.506a2.94 2.94 0 0 1-1.386-.324 2.167 2.167 0 0 1-.922-.915z"/><defs><linearGradient id="a" x1="8.458" x2="10.193" y1="4" y2="20.259" gradientUnits="userSpaceOnUse"><stop stop-color="#BBB"/><stop offset="1" stop-color="#888"/></linearGradient><linearGradient id="b" x1="8" x2="9.386" y1="5" y2="19.254" gradientUnits="userSpaceOnUse"><stop stop-color="#fff"/><stop offset="1" stop-color="#EBEBEB"/></linearGradient><radialGradient id="c" cx="0" cy="0" r="1" gradientTransform="matrix(9.5 11.0833 -14.25 4.15625 8.75 8.646)" gradientUnits="userSpaceOnUse"><stop offset=".177" stop-color="#fff"/><stop offset="1" stop-color="#EFEFEF"/></radialGradient><linearGradient id="d" x1="8.188" x2="13.341" y1="6.96" y2="13.563" gradientUnits="userSpaceOnUse"><stop stop-color="#00E3DF"/><stop offset=".41" stop-color="#0097A8"/><stop offset="1" stop-color="#007791"/></linearGradient><radialGradient id="e" cx="0" cy="0" r="1" gradientTransform="matrix(-2.19872 -5.45189 9.56837 -4.04978 12.148 14.746)" gradientUnits="userSpaceOnUse"><stop offset=".286" stop-color="#003B5D"/><stop offset=".612" stop-color="#004A6C" stop-opacity=".688"/><stop offset=".968" stop-color="#006F94" stop-opacity="0"/></radialGradient><radialGradient id="f" cx="0" cy="0" r="1" gradientTransform="matrix(-1.82554 -4.61414 8.08816 -3.35831 12.28 13.051)" gradientUnits="userSpaceOnUse"><stop offset=".26" stop-color="#002A42"/><stop offset=".612" stop-color="#004261" stop-opacity=".688"/><stop offset=".968" stop-color="#006F94" stop-opacity="0"/></radialGradient><radialGradient id="g" cx="0" cy="0" r="1" gradientTransform="matrix(-2.29982 3.43484 -3.35291 -2.35602 13.14 6.407)" gradientUnits="userSpaceOnUse"><stop stop-color="#78EDFF"/><stop offset="1" stop-color="#2CCFCA" stop-opacity="0"/></radialGradient><linearGradient id="h" x1="11.358" x2="15.273" y1="10.5" y2="16.022" gradientUnits="userSpaceOnUse"><stop stop-color="#00E0D9"/><stop offset=".476" stop-color="#009FB8"/><stop offset=".945" stop-color="#056475"/></linearGradient><radialGradient id="i" cx="0" cy="0" r="1" gradientTransform="matrix(1.30978 -3.5 6.77724 2.19592 11.929 15.25)" gradientUnits="userSpaceOnUse"><stop stop-color="#004A5D"/><stop offset=".492" stop-color="#00556C" stop-opacity=".688"/><stop offset=".968" stop-color="#007A86" stop-opacity="0"/></radialGradient><radialGradient id="j" cx="0" cy="0" r="1" gradientTransform="matrix(-1.97727 2.68233 -2.88267 -1.83985 15.616 10.068)" gradientUnits="userSpaceOnUse"><stop stop-color="#78EDFF"/><stop offset="1" stop-color="#2CCFCA" stop-opacity="0"/></radialGradient><linearGradient id="k" x1="-5.609" x2="-4.875" y1="13.141" y2="19.606" gradientUnits="userSpaceOnUse"><stop offset=".053" stop-color="#75FFF6"/><stop offset=".511" stop-color="#00C7D1"/><stop offset=".96" stop-color="#0096AD"/></linearGradient><linearGradient id="l" x1="13.948" x2="13.481" y1="18.118" y2="15.232" gradientUnits="userSpaceOnUse"><stop offset=".26" stop-color="#0E5A5D"/><stop offset=".536" stop-color="#126C6B" stop-opacity=".688"/><stop offset=".968" stop-color="#1C948A" stop-opacity="0"/></linearGradient><radialGradient id="m" cx="0" cy="0" r="1" gradientTransform="rotate(45 -15.192 7.707) scale(14.1421)" gradientUnits="userSpaceOnUse"><stop offset=".063" stop-color="#00B6BD"/><stop offset=".89" stop-color="#00495C"/></radialGradient><radialGradient id="n" cx="0" cy="0" r="1" gradientTransform="matrix(0 7 -7.96875 0 6 19)" gradientUnits="userSpaceOnUse"><stop offset=".567" stop-color="#1E8581" stop-opacity="0"/><stop offset=".974" stop-color="#1ECBE6"/></radialGradient></defs></svg>