<svg xmlns="http://www.w3.org/2000/svg" fill="none" viewBox="0 0 24 24"><script xmlns="" id="__gaOptOutExtension"/><path fill="url(#a)" d="M2 6a2 2 0 0 1 2-2h14a4 4 0 0 1 4 4v10a2 2 0 0 1-2 2H6a4 4 0 0 1-4-4V6z"/><path fill="url(#b)" d="M3 6a1 1 0 0 1 1-1h14a3 3 0 0 1 3 3v10a1 1 0 0 1-1 1H6a3 3 0 0 1-3-3V6z"/><path fill="url(#c)" d="M3 6a1 1 0 0 1 1-1h14a3 3 0 0 1 3 3v10a1 1 0 0 1-1 1H6a3 3 0 0 1-3-3V6z"/><path fill="url(#d)" d="M11.947 8.276A.5.5 0 0 0 11 8.5v4a.5.5 0 1 0 1 0v-1.882l.053.106a.5.5 0 0 0 .894 0l.053-.106V12.5a.5.5 0 1 0 1 0v-4a.5.5 0 0 0-.947-.224L12.5 9.382l-.553-1.106z"/><path fill="url(#e)" d="M16 8.5a.5.5 0 0 0-1 0v4a.5.5 0 0 0 .5.5H17a.5.5 0 1 0 0-1h-1V8.5z"/><path fill="url(#f)" d="M7.276 8.053a.5.5 0 0 1 .671.224L8.5 9.382l.553-1.105a.5.5 0 1 1 .894.447L9.06 10.5l.888 1.777a.5.5 0 1 1-.894.447L8.5 11.618l-.553 1.106a.5.5 0 1 1-.894-.447L7.94 10.5l-.888-1.776a.5.5 0 0 1 .223-.671z"/><path fill="url(#g)" d="M5.5 15a.5.5 0 0 0 0 1h13a.5.5 0 1 0 0-1h-13z"/><defs><linearGradient id="a" x1="8.458" x2="10.193" y1="4" y2="20.259" gradientUnits="userSpaceOnUse"><stop stop-color="#BBB"/><stop offset="1" stop-color="#888"/></linearGradient><linearGradient id="b" x1="8" x2="9.386" y1="5" y2="19.254" gradientUnits="userSpaceOnUse"><stop stop-color="#fff"/><stop offset="1" stop-color="#EBEBEB"/></linearGradient><radialGradient id="c" cx="0" cy="0" r="1" gradientTransform="matrix(9.5 11.0833 -14.25 4.15625 8.75 8.646)" gradientUnits="userSpaceOnUse"><stop offset=".177" stop-color="#fff"/><stop offset="1" stop-color="#EFEFEF"/></radialGradient><linearGradient id="d" x1="6.313" x2="10.366" y1="4.667" y2="16.82" gradientUnits="userSpaceOnUse"><stop offset="0" stop-color="#597493"/><stop offset="1" stop-color="#0F2F56"/></linearGradient><linearGradient id="e" x1="6.313" x2="10.366" y1="4.667" y2="16.82" gradientUnits="userSpaceOnUse"><stop offset="0" stop-color="#597493"/><stop offset="1" stop-color="#0F2F56"/></linearGradient><linearGradient id="f" x1="6.313" x2="10.366" y1="4.667" y2="16.82" gradientUnits="userSpaceOnUse"><stop offset="0" stop-color="#597493"/><stop offset="1" stop-color="#0F2F56"/></linearGradient><linearGradient id="g" x1="6.313" x2="10.366" y1="4.667" y2="16.82" gradientUnits="userSpaceOnUse"><stop offset="0" stop-color="#597493"/><stop offset="1" stop-color="#0F2F56"/></linearGradient></defs></svg>